<mxfile host="app.diagrams.net" modified="2021-12-20T08:05:52.220Z" agent="5.0 (Macintosh; Intel Mac OS X 10_15_7) AppleWebKit/537.36 (KHTML, like Gecko) Chrome/96.0.4664.110 Safari/537.36 Edg/96.0.1054.62" etag="37tUB-sGjlBdFnLKLV9x" version="16.0.0" type="github">
  <diagram id="V6_seZ6A33DKyXAXDrEg" name="Page-1">
    <mxGraphModel dx="946" dy="681" grid="1" gridSize="10" guides="1" tooltips="1" connect="1" arrows="1" fold="1" page="1" pageScale="1" pageWidth="827" pageHeight="1169" math="0" shadow="0">
      <root>
        <mxCell id="0" />
        <mxCell id="1" parent="0" />
        <mxCell id="tMOJ5uZH7OQ2zsUtNRNP-1" value="DrawPanel" style="rounded=0;whiteSpace=wrap;html=1;" vertex="1" parent="1">
          <mxGeometry x="280" y="240" width="120" height="60" as="geometry" />
        </mxCell>
        <mxCell id="tMOJ5uZH7OQ2zsUtNRNP-4" style="edgeStyle=orthogonalEdgeStyle;rounded=0;orthogonalLoop=1;jettySize=auto;html=1;exitX=1;exitY=0.5;exitDx=0;exitDy=0;entryX=0;entryY=0.5;entryDx=0;entryDy=0;startArrow=none;" edge="1" parent="1" source="tMOJ5uZH7OQ2zsUtNRNP-7" target="tMOJ5uZH7OQ2zsUtNRNP-1">
          <mxGeometry relative="1" as="geometry" />
        </mxCell>
        <mxCell id="tMOJ5uZH7OQ2zsUtNRNP-16" style="edgeStyle=orthogonalEdgeStyle;rounded=0;orthogonalLoop=1;jettySize=auto;html=1;entryX=0.5;entryY=0;entryDx=0;entryDy=0;" edge="1" parent="1" source="tMOJ5uZH7OQ2zsUtNRNP-2" target="tMOJ5uZH7OQ2zsUtNRNP-1">
          <mxGeometry relative="1" as="geometry">
            <Array as="points">
              <mxPoint x="140" y="180" />
              <mxPoint x="340" y="180" />
            </Array>
          </mxGeometry>
        </mxCell>
        <mxCell id="tMOJ5uZH7OQ2zsUtNRNP-2" value="client" style="rounded=0;whiteSpace=wrap;html=1;" vertex="1" parent="1">
          <mxGeometry x="80" y="240" width="120" height="60" as="geometry" />
        </mxCell>
        <mxCell id="tMOJ5uZH7OQ2zsUtNRNP-5" style="edgeStyle=orthogonalEdgeStyle;rounded=0;orthogonalLoop=1;jettySize=auto;html=1;startArrow=none;" edge="1" parent="1" source="tMOJ5uZH7OQ2zsUtNRNP-6" target="tMOJ5uZH7OQ2zsUtNRNP-1">
          <mxGeometry relative="1" as="geometry" />
        </mxCell>
        <mxCell id="tMOJ5uZH7OQ2zsUtNRNP-14" style="edgeStyle=orthogonalEdgeStyle;rounded=0;orthogonalLoop=1;jettySize=auto;html=1;entryX=0.5;entryY=0;entryDx=0;entryDy=0;" edge="1" parent="1" source="tMOJ5uZH7OQ2zsUtNRNP-3" target="tMOJ5uZH7OQ2zsUtNRNP-1">
          <mxGeometry relative="1" as="geometry">
            <Array as="points">
              <mxPoint x="560" y="180" />
              <mxPoint x="340" y="180" />
            </Array>
          </mxGeometry>
        </mxCell>
        <mxCell id="tMOJ5uZH7OQ2zsUtNRNP-3" value="local" style="rounded=0;whiteSpace=wrap;html=1;" vertex="1" parent="1">
          <mxGeometry x="500" y="240" width="120" height="60" as="geometry" />
        </mxCell>
        <mxCell id="tMOJ5uZH7OQ2zsUtNRNP-7" value="signal" style="text;html=1;align=center;verticalAlign=middle;resizable=0;points=[];autosize=1;strokeColor=none;fillColor=none;" vertex="1" parent="1">
          <mxGeometry x="210" y="260" width="50" height="20" as="geometry" />
        </mxCell>
        <mxCell id="tMOJ5uZH7OQ2zsUtNRNP-8" value="" style="edgeStyle=orthogonalEdgeStyle;rounded=0;orthogonalLoop=1;jettySize=auto;html=1;exitX=1;exitY=0.5;exitDx=0;exitDy=0;entryX=0;entryY=0.5;entryDx=0;entryDy=0;endArrow=none;" edge="1" parent="1" source="tMOJ5uZH7OQ2zsUtNRNP-2" target="tMOJ5uZH7OQ2zsUtNRNP-7">
          <mxGeometry relative="1" as="geometry">
            <mxPoint x="200" y="270" as="sourcePoint" />
            <mxPoint x="280" y="270" as="targetPoint" />
          </mxGeometry>
        </mxCell>
        <mxCell id="tMOJ5uZH7OQ2zsUtNRNP-6" value="signal" style="text;html=1;align=center;verticalAlign=middle;resizable=0;points=[];autosize=1;strokeColor=none;fillColor=none;" vertex="1" parent="1">
          <mxGeometry x="430" y="260" width="50" height="20" as="geometry" />
        </mxCell>
        <mxCell id="tMOJ5uZH7OQ2zsUtNRNP-9" value="" style="edgeStyle=orthogonalEdgeStyle;rounded=0;orthogonalLoop=1;jettySize=auto;html=1;endArrow=none;" edge="1" parent="1" source="tMOJ5uZH7OQ2zsUtNRNP-3" target="tMOJ5uZH7OQ2zsUtNRNP-6">
          <mxGeometry relative="1" as="geometry">
            <mxPoint x="480" y="270" as="sourcePoint" />
            <mxPoint x="400" y="270" as="targetPoint" />
          </mxGeometry>
        </mxCell>
        <mxCell id="tMOJ5uZH7OQ2zsUtNRNP-13" style="edgeStyle=orthogonalEdgeStyle;rounded=0;orthogonalLoop=1;jettySize=auto;html=1;entryX=0.5;entryY=1;entryDx=0;entryDy=0;" edge="1" parent="1" source="tMOJ5uZH7OQ2zsUtNRNP-10" target="tMOJ5uZH7OQ2zsUtNRNP-3">
          <mxGeometry relative="1" as="geometry" />
        </mxCell>
        <mxCell id="tMOJ5uZH7OQ2zsUtNRNP-10" value="ToolBar" style="rounded=0;whiteSpace=wrap;html=1;" vertex="1" parent="1">
          <mxGeometry x="500" y="360" width="120" height="60" as="geometry" />
        </mxCell>
        <mxCell id="tMOJ5uZH7OQ2zsUtNRNP-12" style="edgeStyle=orthogonalEdgeStyle;rounded=0;orthogonalLoop=1;jettySize=auto;html=1;entryX=0.5;entryY=1;entryDx=0;entryDy=0;" edge="1" parent="1" source="tMOJ5uZH7OQ2zsUtNRNP-11" target="tMOJ5uZH7OQ2zsUtNRNP-10">
          <mxGeometry relative="1" as="geometry" />
        </mxCell>
        <mxCell id="tMOJ5uZH7OQ2zsUtNRNP-11" value="Ball" style="rounded=0;whiteSpace=wrap;html=1;" vertex="1" parent="1">
          <mxGeometry x="500" y="480" width="120" height="60" as="geometry" />
        </mxCell>
        <mxCell id="tMOJ5uZH7OQ2zsUtNRNP-15" value="clear" style="text;html=1;align=center;verticalAlign=middle;resizable=0;points=[];autosize=1;strokeColor=none;fillColor=none;" vertex="1" parent="1">
          <mxGeometry x="430" y="160" width="40" height="20" as="geometry" />
        </mxCell>
        <mxCell id="tMOJ5uZH7OQ2zsUtNRNP-17" value="clear" style="text;html=1;align=center;verticalAlign=middle;resizable=0;points=[];autosize=1;strokeColor=none;fillColor=none;" vertex="1" parent="1">
          <mxGeometry x="220" y="160" width="40" height="20" as="geometry" />
        </mxCell>
      </root>
    </mxGraphModel>
  </diagram>
</mxfile>
